<?xml version="1.0" encoding="utf-8"?>
<svg version="1.1" id="Layer_1" xmlns="https://www.w3.org/2000/svg" xmlns:xlink="https://www.w3.org/1999/xlink" x="0px" y="0px"
	 viewBox="0 0 1250 850" style="enable-background:new 0 0 1250 850;" xml:space="preserve">
<style type="text/css">
	.st0{fill:#DCDBDB;}
	.st1{fill:none;stroke:#FFFFFF;stroke-width:20;}
	.st2{fill:#CCCCCC;}
	.st3{fill:#A5D5A1;}
	.st4{fill:#9BD9E3;}
	.st5{fill:#636363;}
	.st6{fill:none;stroke:#636363;stroke-width:5;}
</style>
<path class="st0" d="M0,750 h170 l-30,50 h-140"/>
<path class="st0" d="M500,750 h-170 l30,50 h140"/>
<mask id="msk">
	<path d="M0,0 h1200 v675 a125,125 0 0,1 -125,125 h-1125z" fill="#fff" />
</mask>
<g mask="url(#msk)">
<path class="st0" d="M525,750 h600 v50 h-600z"/>
<path class="st0" d="M1150,725 h50 v-570 l-50,-20z"/>
</g>
<path class="st0" d="M1150,0 h50 v50 l-50,20 v-120z"/>

<path class="st2" d="M0,645 h480 v20 h20 v60 h-590z"/>
<path class="st2" d="M525,645 m0,20 h20 v-20 h580 v80 h-600z"/>
<path class="st2" d="M0,100 h580 v70 h-211 v70 h-369" />
<path class="st2" d="M1050,100 h-263.63 v90 h263.63" />
<path class="st6" d="M1050,170 h-263.63" />

<circle class="st3" cx="125" cy="775" r="22"/>
<circle class="st3" cx="375" cy="775" r="22"/>
<circle class="st3" cx="560" cy="775" r="22"/>
<circle class="st3" cx="775" cy="775" r="22"/>
<circle class="st3" cx="1175" cy="325" r="22"/>
<circle class="st3" cx="1175" cy="525" r="22"/>
<circle class="st3" cx="425" cy="685" r="45"/>
<circle class="st3" cx="615" cy="685" r="45"/>
<circle class="st3" cx="775" cy="685" r="45"/>
<circle class="st3" cx="875" cy="685" r="45"/>
<circle class="st3" cx="975" cy="685" r="45"/>


<g transform="translate(10,-175)">
	<path class="st5" d="M175.8,373.3c0.2,0,0.3,0,0.6,0c1,0,1.8-0.2,2.4-0.8c0.4-0.4,0.7-1,0.7-1.7c0-0.7-0.3-1.3-0.8-1.7
			c-0.5-0.4-1.2-0.6-2.2-0.6c-1,0-1.7,0.1-2.2,0.2v7.2h1.6L175.8,373.3L175.8,373.3z M175.8,369.9c0.1,0,0.3-0.1,0.7-0.1
			c0.8,0,1.3,0.4,1.3,1.1c0,0.7-0.5,1.2-1.4,1.2c-0.2,0-0.4,0-0.6,0L175.8,369.9L175.8,369.9z"/>
		<path class="st5" d="M172.7,378.2h8.1c1,0,1.9-0.8,1.9-1.9v-8.1c0-1-0.8-1.9-1.9-1.9h-8.1c-1,0-1.9,0.8-1.9,1.9v8.1
			C170.9,377.4,171.7,378.2,172.7,378.2z M172.3,368.3c0-0.3,0.2-0.5,0.5-0.5h7.9c0.3,0,0.5,0.2,0.5,0.5v7.9c0,0.3-0.2,0.5-0.5,0.5
			h-7.9c-0.3,0-0.5-0.2-0.5-0.5C172.3,376.2,172.3,368.3,172.3,368.3z"/>
		<path class="st5" d="M178.4,388c-1.8,0-3.3,1.5-3.3,3.3c0,1.8,1.5,3.3,3.3,3.3c1.8,0,3.3-1.5,3.3-3.3
			C181.7,389.4,180.2,388,178.4,388z M178.4,392.2c-0.5,0-1-0.4-1-1c0-0.5,0.4-1,1-1c0.5,0,1,0.4,1,1
			C179.4,391.8,179,392.2,178.4,392.2z"/>
		<path class="st5" d="M202.2,388.5l-0.5-4.3c-0.1-0.8-0.8-1.4-1.7-1.4l-1.2,0.1l-3.6-3.3c-0.3-0.3-0.8-0.5-1.3-0.5l-7.4,0
			c-1.7,0-3.3,0.6-4.5,1.6l-4.1,3.3l-5.5,1.4c-0.7,0.2-1.2,0.8-1.2,1.5v1.6c-0.2,0-0.4,0.2-0.4,0.4v2.1c0,0.3,0.2,0.5,0.5,0.5h3.1
			c0-0.1,0-0.3,0-0.4c0-2.3,1.8-4.1,4.1-4.1s4.1,1.8,4.1,4.1c0,0.1,0,0.3,0,0.4h8.6c0-0.1,0-0.3,0-0.4c0-2.3,1.8-4.1,4.1-4.1
			c2.3,0,4.1,1.8,4.1,4.1c0,0.1,0,0.3,0,0.4h2.9c0.3,0,0.5-0.2,0.5-0.5v-2C202.7,388.8,202.5,388.5,202.2,388.5L202.2,388.5z
			 M191.2,383.2l-10.3,0.5l2-1.6c1.1-0.9,2.4-1.3,3.8-1.3h4.5C191.2,380.8,191.2,383.2,191.2,383.2z M192.9,383.1v-2.3h0.7
			c0.2,0,0.5,0.1,0.6,0.2l2.1,1.9C196.3,383,192.9,383.1,192.9,383.1z"/>
		<path class="st5" d="M195.2,388c-1.8,0-3.3,1.5-3.3,3.3c0,1.8,1.5,3.3,3.3,3.3c1.8,0,3.3-1.5,3.3-3.3
			C198.4,389.4,197,388,195.2,388z M195.2,392.2c-0.5,0-1-0.4-1-1c0-0.5,0.4-1,1-1c0.5,0,1,0.4,1,1
			C196.2,391.8,195.7,392.2,195.2,392.2z"/>
</g>
<path class="st6" d="M0,0 m1200,0 v675 a125,125 0 0,1 -125,125 h-1125" />
<text class="st5" x="500" y="835" text-anchor="middle" font-size="3vmin" font-family="sans">Monticello Ave.</text>
<text transform="rotate(90, 1230, 400)" class="st5" x="1230" y="400" text-anchor="middle" font-size="3vmin" font-family="sans">Keeney St.</text>
</svg>
